/* XPM */
static char *wall_north[] = {
/* width height num_colors chars_per_pixel */
"4 4 1 1",
/* colors */
"a c #FFFF00",
/* pixels */
"aaaa",
"aaaa",
"acca",
"aaaa"
};
